<svg width="220" height="64" viewBox="0 0 220 64" xmlns="http://www.w3.org/2000/svg" role="img">
  <title>Outlog logo — primary</title>
  <desc>Topo mark and Outlog wordmark</desc>
  <rect width="220" height="64" rx="10" fill="#F0EDE6"/>
  <g transform="translate(16, 14) scale(0.5625)">
    <path d="M 6 16 C 14 12, 24 12, 32 16 C 40 20, 50 20, 58 16" fill="none" stroke="#0A6E5A" stroke-width="3" stroke-linecap="round"/>
  <path d="M 6 24 C 14 20, 24 20, 32 24 C 40 28, 50 28, 58 24" fill="none" stroke="#0A6E5A" stroke-width="4" stroke-linecap="round"/>
  <path d="M 6 40 C 14 36, 24 36, 32 40 C 40 44, 50 44, 58 40" fill="none" stroke="#0A6E5A" stroke-width="4" stroke-linecap="round"/>
  <path d="M 6 48 C 14 44, 24 44, 32 48 C 40 52, 50 52, 58 48" fill="none" stroke="#0A6E5A" stroke-width="3" stroke-linecap="round"/>
  </g>
  <text x="64" y="41" font-family="'Barlow','Arial Narrow',Arial,sans-serif" font-size="26" font-weight="600" fill="#1A1A18" letter-spacing="0.02em">Outlog</text>
</svg>
